<?xml version="1.0" encoding="iso-8859-1"?>
<!DOCTYPE svg PUBLIC "-//W3C//DTD SVG 1.0//EN" "http://www.w3.org/TR/2001/REC-SVG-20010904/DTD/svg10.dtd">
<!-- Creator: CorelDRAW -->
<svg xmlns="http://www.w3.org/2000/svg" xmlns:odm="http://product.corel.com/CGS/11/cddns/" xml:space="preserve" width="578px" height="768px" style="shape-rendering:geometricPrecision; text-rendering:geometricPrecision; image-rendering:optimizeQuality; fill-rule:evenodd"
     viewBox="0 0 578 768">
 <defs>
  <style type="text/css">
   <![CDATA[
    .str0 {stroke:#000000;stroke-width:3}
    .fil2 {fill:none}
    .fil6 {fill:#000000}
    .fil1 {fill:#AAC8B4}
    .fil5 {fill:#AB7486}
    .fil4 {fill:#B4DCF0}
    .fil3 {fill:#D97382}
    .fil0 {fill:#FFFFC8}
    .fnt0 {font-weight:normal;font-size:28;font-family:Arial}
   ]]>
  </style>
  <clipPath id="clip1">
   <path d="M232 90c17,-91 165,-88 180,-14 14,45 13,91 18,139 22,74 44,148 49,222 2,28 4,55 5,83 0,22 -19,69 -20,106 0,13 -22,25 -32,15 5,37 -6,55 -37,49 6,28 -23,49 -47,34 -7,23 -40,31 -57,13 -8,-15 -9,-48 -10,-76 -2,-13 -20,-16 -18,4 0,6 0,9 0,15 10,21 7,47 -4,63 -10,16 -48,16 -60,-3 -11,-18 -11,-57 -11,-66 -18,-66 -23,-128 -6,-187 21,-46 34,-101 34,-170 -1,-76 8,-152 16,-227z"/>
  </clipPath>
 </defs>
 <g id="Layer 1">
  <path class="fil0 str0" d="M232 90c17,-91 165,-88 180,-14 14,45 13,91 18,139 22,74 44,148 49,222 2,28 4,55 5,83 0,22 -19,69 -20,106 0,13 -22,25 -32,15 5,37 -6,55 -37,49 6,28 -23,49 -47,34 -7,23 -40,31 -57,13 -8,-15 -9,-48 -10,-76 -2,-13 -20,-16 -18,4 0,6 0,9 0,15 10,21 7,47 -4,63 -10,16 -48,16 -60,-3 -11,-18 -11,-57 -11,-66 -18,-66 -23,-128 -6,-187 21,-46 34,-101 34,-170 -1,-76 8,-152 16,-227z"/>
  <g clip-path="url(#clip1)">
   <path class="fil1 str0" d="M350 270c1,33 19,118 33,212 8,77 17,162 32,228l200 -267c-189,-263 -268,-299 -265,-173z"/>
   <path class="fil3 str0" d="M188 445c59,-65 74,-164 29,-302l-29 302z"/>
   <path class="fil4 str0" d="M215 142c13,62 55,112 137,138 48,-91 76,-177 107,-264 -131,-18 -257,-31 -244,126z"/>
   <path class="fil5 str0" d="M487 397c-85,-95 -121,-221 -105,-381 94,84 70,254 105,381z"/>
  </g>
  <path class="str0 fil2" d="M232 90c17,-91 165,-88 180,-14 14,45 13,91 18,139 22,74 44,148 49,222 2,28 4,55 5,83 0,22 -19,69 -20,106 0,13 -22,25 -32,15 5,37 -6,55 -37,49 6,28 -23,49 -47,34 -7,23 -40,31 -57,13 -8,-15 -9,-48 -10,-76 -2,-13 -20,-16 -18,4 0,6 0,9 0,15 10,21 7,47 -4,63 -10,16 -48,16 -60,-3 -11,-18 -11,-57 -11,-66 -18,-66 -23,-128 -6,-187 21,-46 34,-101 34,-170 -1,-76 8,-152 16,-227z"/>
  <path class="fil2 str0" d="M225 628c51,46 186,27 223,-63"/>
  <path class="fil2 str0" d="M216 670c10,-9 41,-5 48,13"/>
  <path class="fil2 str0" d="M299 695c10,-8 22,-9 35,0"/>
  <path class="fil2 str0" d="M370 678c-9,-1 -16,2 -21,10"/>
  <path class="fil2 str0" d="M393 662c2,-15 11,-22 27,-21"/>
  <path class="fil2 str0" d="M426 610c5,-12 14,-16 27,-10"/>
  <path class="fil2 str0" d="M432 641c-10,-9 -12,-22 -11,-35"/>
  <path class="fil2 str0" d="M395 690c-13,-14 -13,-35 -12,-57"/>
  <path class="fil2 str0" d="M348 724c-6,-11 -14,-54 -14,-75"/>
  <text x="13" y="287" class="fil6 fnt0">Saphenous</text>
  <text x="45" y="318" class="fil6 fnt0">L. 3.4.</text>
  <text x="271" y="131" class="fil6 fnt0">Tibial</text>
  <text x="264" y="162" class="fil6 fnt0">S. 1.2.</text>
  <text x="496" y="164" class="fil6 fnt0">Sural</text>
  <text x="489" y="195" class="fil6 fnt0">S. 1.2.</text>
  <g transform="matrix(2.64845E-014 -1 1 2.64845E-014 -98.2162 750.613)">
   <text x="201" y="384" class="fil6 fnt0">Medial plantar</text>
   <text x="250" y="415" class="fil6 fnt0">L. 4.5.</text>
  </g>
  <g transform="matrix(-0.167027 -0.985952 0.985952 -0.167027 84.294 788.45)">
   <text x="200" y="384" class="fil6 fnt0">Lateral plantar</text>
   <text x="249" y="415" class="fil6 fnt0">S. 1.2.</text>
  </g>
  <path class="fil2 str0" d="M402 168l79 0"/>
  <path class="fil2 str0" d="M142 297l87 0"/>
 </g>
</svg>
